<?xml version="1.0" encoding="utf-8"?>
<!-- Svg Vector Icons : http://www.onlinewebfonts.com/icon -->
<!DOCTYPE svg PUBLIC "-//W3C//DTD SVG 1.1//EN" "http://www.w3.org/Graphics/SVG/1.1/DTD/svg11.dtd">
<svg version="1.1" xmlns="http://www.w3.org/2000/svg" xmlns:xlink="http://www.w3.org/1999/xlink" x="0px" y="0px" role="img" viewBox="0 0 500 500" xml:space="preserve">
<metadata> Svg Vector Icons : http://www.onlinewebfonts.com/icon </metadata>
<g><g transform="translate(0.000000,417.000000) scale(0.100000,-0.100000)"><path d="M7948.5,2332.7l-859.3-857.4l-190.1,77.6c-1257,512.1-2673.1,498.5-3926.2-38.8c-391.9-166.8-779.8-401.5-1144.5-690.6C1727.5,744,1296.9,332.8,872.1-90.1L100-858.3l830.3-826.4C1791.5-2540.1,1937-2668.2,2358-2930l190.1-118.3l-766.2-766.2c-537.3-539.3-770.1-785.7-779.8-824.5c-27.2-112.5,85.4-225,197.9-197.8c38.8,9.7,294.8,252.2,861.3,816.7l805,805l265.8-106.7c442.3-178.5,900.1-289,1402.5-339.5c287.1-31,950.5-13.6,1218.2,29.1C6676-3486.8,7471.3-3137.6,8191-2563.4c91.2,71.8,512.1,477.2,937,898.1l772,768.2L9079.5-80.4c-867.1,863.2-1051.4,1022.3-1482,1280.3l-197.9,118.3l785.6,783.7c430.6,430.6,797.3,807,812.8,836.1c15.5,29.1,27.2,69.8,27.2,91.2c0,58.2-79.5,135.8-151.3,149.4C8809.8,3192.1,8798.2,3180.4,7948.5,2332.7z M5518,1566.5c135.8-15.5,349.2-50.4,475.3-77.6c252.2-54.3,739.1-211.4,795.3-254.1c33-25.2-120.3-182.3-1980.6-2032.9L2792.5-2803.9L2616-2701.1c-397.7,232.8-605.2,409.3-1346.2,1144.5L565.6-858.3l665.4,659.5c686.7,682.8,923.3,884.6,1295.8,1109.6c581.9,351.1,1227.9,574.2,1887.5,653.7C4709,1601.4,5219.2,1601.4,5518,1566.5z M7618.8,790.5c322-215.3,543.2-413.2,1208.5-1080.5L9434.4-899l-636.2-630.4C7948.5-2371.4,7694.4-2571.2,7095-2868c-710-349.2-1404.4-498.5-2211.4-477.2c-632.4,17.5-1125.1,122.2-1695.4,358.9l-66,27.2L5137.7-943.7l2013.5,2013.5l128-67.9C7349.1,963.2,7502.4,868.1,7618.8,790.5z"/><path d="M4747.8,1263.9c-677-71.8-1336.5-521.8-1648.9-1123.2C2912.8-220.1,2850.7-474.2,2850.7-868c0-318.1,36.9-527.6,141.6-789.5c50.4-124.1,166.8-355,180.4-355c1.9,0,671.2,667.3,1485.9,1482l1484,1484l-203.7,97c-244.4,118.3-473.3,186.2-721.6,213.4C5011.6,1287.2,4972.9,1287.2,4747.8,1263.9z"/><path d="M5300.7-1188.1C4105.7-2383,3822.5-2675.9,3845.8-2693.4c110.6-75.7,450-219.2,611-261.9c240.5-62.1,591.6-81.5,824.4-48.5C6251.2-2860.2,6982.5-2128.9,7126-1159c46.6,318.1-3.9,743-120.3,1047.5c-50.4,126.1-194,407.4-209.5,407.4C6788.5,295.9,6117.3-371.4,5300.7-1188.1z"/></g></g>
</svg>